<?xml version="1.0" encoding="UTF-8" standalone="no"?>
<!-- Created with Inkscape (http://www.inkscape.org/) -->

<svg
   xmlns:dc="http://purl.org/dc/elements/1.1/"
   xmlns:cc="http://creativecommons.org/ns#"
   xmlns:rdf="http://www.w3.org/1999/02/22-rdf-syntax-ns#"
   xmlns:svg="http://www.w3.org/2000/svg"
   xmlns="http://www.w3.org/2000/svg"
   xmlns:xlink="http://www.w3.org/1999/xlink"
   xmlns:sodipodi="http://sodipodi.sourceforge.net/DTD/sodipodi-0.dtd"
   xmlns:inkscape="http://www.inkscape.org/namespaces/inkscape"
   width="512"
   height="447"
   viewBox="0 0 512.00001 447.00001"
   id="svg2"
   version="1.1"
   inkscape:version="0.91 r13725"
   sodipodi:docname="roleman_logo.svg">
  <defs
     id="defs4">
    <linearGradient
       inkscape:collect="always"
       id="linearGradient4144">
      <stop
         style="stop-color:#40c4ff;stop-opacity:1;"
         offset="0"
         id="stop4146" />
      <stop
         style="stop-color:#40c4ff;stop-opacity:0;"
         offset="1"
         id="stop4148" />
    </linearGradient>
    <linearGradient
       inkscape:collect="always"
       xlink:href="#linearGradient4144"
       id="linearGradient4152"
       x1="254.83235"
       y1="537.75592"
       x2="257.16763"
       y2="1059.1844"
       gradientUnits="userSpaceOnUse" />
  </defs>
  <sodipodi:namedview
     id="base"
     pagecolor="#ffffff"
     bordercolor="#666666"
     borderopacity="1.0"
     inkscape:pageopacity="0.0"
     inkscape:pageshadow="2"
     inkscape:zoom="0.7"
     inkscape:cx="231.00649"
     inkscape:cy="531.09513"
     inkscape:document-units="px"
     inkscape:current-layer="layer1"
     showgrid="false"
     units="px"
     inkscape:window-width="1920"
     inkscape:window-height="1058"
     inkscape:window-x="1912"
     inkscape:window-y="-8"
     inkscape:window-maximized="1" />
  <metadata
     id="metadata7">
    <rdf:RDF>
      <cc:Work
         rdf:about="">
        <dc:format>image/svg+xml</dc:format>
        <dc:type
           rdf:resource="http://purl.org/dc/dcmitype/StillImage" />
        <dc:title></dc:title>
      </cc:Work>
    </rdf:RDF>
  </metadata>
  <g
     inkscape:label="Layer 1"
     inkscape:groupmode="layer"
     id="layer1"
     transform="translate(0,-605.36216)">
    <path
       style="opacity:1;fill:url(#linearGradient4152);fill-opacity:1;stroke:#000000;stroke-width:24;stroke-linejoin:miter;stroke-miterlimit:4;stroke-dasharray:none;stroke-opacity:1"
       inkscape:transform-center-x="0.0048242745"
       inkscape:transform-center-y="17.868047"
       d="m 90,617.36216 332,0 78,85.00004 -244,338 -244,-338 z"
       id="path4141"
       inkscape:connector-curvature="0"
       sodipodi:nodetypes="cccccc" />
    <g
       transform="scale(0.93530932,1.069165)"
       style="font-style:normal;font-variant:normal;font-weight:normal;font-stretch:normal;font-size:365.71051025px;line-height:125%;font-family:'Copperplate Gothic Bold';-inkscape-font-specification:'Copperplate Gothic Bold, Normal';text-align:start;letter-spacing:0px;word-spacing:0px;writing-mode:lr-tb;text-anchor:start;fill:#000000;fill-opacity:1;stroke:none;stroke-width:1px;stroke-linecap:butt;stroke-linejoin:miter;stroke-opacity:1"
       id="text4174">
      <path
         d="m 208.68447,728.4906 0,80.89202 q 0,5.35709 2.49997,8.39277 2.67854,2.85711 8.92848,4.46424 l 0,5.71423 -76.07064,0 0,-5.71423 q 6.4285,-1.7857 8.92847,-4.64281 2.49998,-2.85711 2.49998,-8.2142 l 0,-206.42644 q 0,-5.53566 -2.49998,-8.39277 -2.49997,-2.85711 -8.92847,-4.64281 l 0,-5.71423 152.49842,0 q 27.85686,0 44.10669,3.21426 16.4284,3.21425 28.57113,11.24988 14.107,9.28562 21.07121,25.17831 6.60708,15.35699 6.60708,32.85681 0,59.64224 -66.24932,69.8207 l 47.32094,67.32074 q 12.49987,17.67839 18.2141,22.8569 5.8928,4.99995 14.28557,5.53566 l 0,5.71423 -88.21338,0 0,-5.71423 q 9.10705,-1.42856 9.10705,-6.4285 0,-3.21426 -8.39277,-15.53556 l -49.28521,-71.78497 -64.99932,0 z m 0,-40.17816 82.142,0 q 18.2141,0 25.71402,-1.07142 7.49993,-1.07141 13.74986,-4.46424 13.57129,-7.32135 13.57129,-26.42829 0,-19.10695 -13.57129,-26.4283 -6.4285,-3.57139 -13.74986,-4.46424 -7.14278,-1.07142 -25.71402,-1.07142 l -82.142,0 0,63.92791 z"
         style=""
         id="path4179" />
    </g>
  </g>
</svg>
